<?xml version="1.0" standalone="no"?>
<!DOCTYPE svg PUBLIC "-//W3C//DTD SVG 20010904//EN"
 "http://www.w3.org/TR/2001/REC-SVG-20010904/DTD/svg10.dtd">
<svg version="1.0" xmlns="http://www.w3.org/2000/svg"
 width="400.000000pt" height="400.000000pt" viewBox="0 0 400.000000 400.000000"
 preserveAspectRatio="xMidYMid meet">
<metadata>
Created by potrace 1.14, written by Peter Selinger 2001-2017
</metadata>
<g transform="translate(0.000000,400.000000) scale(0.100000,-0.100000)"
fill="#000000" stroke="none">
<path d="M2594 3148 c-59 -40 -27 14 -506 -845 -44 -79 -83 -143 -86 -143 -4
0 -38 56 -75 123 -170 308 -196 337 -306 345 -76 5 -124 -11 -177 -60 -57 -53
-78 -109 -72 -191 6 -68 -7 -42 251 -502 49 -88 106 -189 125 -225 79 -144
128 -191 217 -205 75 -12 167 26 213 89 13 17 83 139 156 271 121 219 270 486
499 893 99 176 111 207 105 271 -12 127 -104 211 -231 211 -56 0 -71 -4 -113
-32z"/>
<path d="M1727 1282 c-20 -22 -22 -73 -5 -90 20 -20 76 -15 88 7 35 66 -35
136 -83 83z"/>
<path d="M1234 1243 c3 -10 36 -110 74 -223 l67 -205 60 0 60 0 67 205 c38
113 71 213 74 223 5 16 0 18 -52 15 l-57 -3 -44 -159 c-24 -88 -45 -161 -47
-163 -1 -2 -23 70 -48 160 l-45 162 -58 3 c-51 3 -56 1 -51 -15z"/>
<path d="M2240 1186 c0 -42 -2 -46 -25 -46 -22 0 -25 -4 -25 -40 0 -36 3 -40
25 -40 24 0 25 -2 25 -75 0 -128 34 -175 125 -175 68 0 79 9 71 53 -5 26 -11
35 -21 30 -8 -3 -26 -2 -40 1 -24 6 -25 9 -25 86 l0 80 45 0 45 0 0 40 0 40
-44 0 -45 0 -3 43 -3 42 -52 3 -53 3 0 -45z"/>
<path d="M1984 1143 c-40 -8 -69 -50 -69 -100 0 -38 5 -49 29 -68 16 -13 49
-31 73 -40 24 -9 43 -21 43 -26 0 -18 -46 -27 -91 -19 -24 5 -45 8 -46 7 0 -1
-4 -19 -8 -39 l-7 -36 47 -7 c80 -13 136 -1 167 34 57 64 28 137 -70 176 -58
23 -49 40 21 38 56 -2 66 6 67 54 0 23 -93 39 -156 26z"/>
<path d="M2553 1139 c-40 -11 -44 -19 -37 -57 l6 -30 64 6 c62 5 64 4 74 -22
5 -15 10 -29 10 -32 0 -2 -21 -4 -47 -4 -91 0 -152 -54 -138 -120 13 -61 90
-88 155 -55 25 13 29 13 34 0 4 -10 20 -15 51 -15 l45 0 0 123 c0 105 -3 127
-20 155 -34 55 -113 75 -197 51z m117 -217 c0 -26 -20 -42 -52 -42 -36 0 -49
27 -23 46 28 21 75 18 75 -4z"/>
<path d="M1712 978 l3 -163 50 0 50 0 3 163 2 162 -55 0 -55 0 2 -162z"/>
</g>
</svg>
